<?xml version="1.0" encoding="UTF-8" standalone="no"?>
<svg
   version="1.1"
   id="Layer_1"
   x="0px"
   y="0px"
   viewBox="0 0 512 512"
   style="enable-background:new 0 0 512 512;"
   xml:space="preserve"
   sodipodi:docname="glasses.svg"
   xmlns:inkscape="http://www.inkscape.org/namespaces/inkscape"
   xmlns:sodipodi="http://sodipodi.sourceforge.net/DTD/sodipodi-0.dtd"
   xmlns="http://www.w3.org/2000/svg"
   xmlns:svg="http://www.w3.org/2000/svg"><defs
   id="defs17" /><sodipodi:namedview
   id="namedview15"
   pagecolor="#ffffff"
   bordercolor="#666666"
   borderopacity="1.0"
   inkscape:pageshadow="2"
   inkscape:pageopacity="0.0"
   inkscape:pagecheckerboard="0"
   showgrid="false"
   inkscape:object-paths="true"
   inkscape:snap-intersection-paths="true"
   inkscape:snap-midpoints="true"
   inkscape:snap-smooth-nodes="true"
   inkscape:snap-object-midpoints="true"
   inkscape:snap-center="true"
   inkscape:object-nodes="true"
   inkscape:snap-nodes="true"
   inkscape:snap-global="true"
   inkscape:snap-bbox="true"
   inkscape:snap-others="true"
   inkscape:bbox-paths="true"
   inkscape:bbox-nodes="true"
   inkscape:snap-bbox-edge-midpoints="true"
   inkscape:snap-bbox-midpoints="true" />
<polygon
   style="fill:#A6C490;"
   points="320.905,384.243 298.756,339.946 298.756,273.078 461.228,273.078 461.228,384.243 "
   id="polygon2" />
<polygon
   style="fill:#FF8800;"
   points="191.095,384.243 213.244,339.946 213.244,273.078 50.772,273.078 50.772,384.243 "
   id="polygon4" />
<path
   d="M320.905,392.26h140.322c4.428,0,8.017-3.589,8.017-8.017V273.078c0-4.427-3.588-8.017-8.017-8.017H298.756  c-4.428,0-8.017,3.589-8.017,8.017v66.867c0,1.245,0.29,2.472,0.847,3.585l22.15,44.298  C315.093,390.544,317.869,392.26,320.905,392.26z M306.772,281.095h146.438v95.132H325.859l-19.086-38.173V281.095z"
   id="path10" />
<path
   d="M42.756,273.078v111.165c0,4.427,3.589,8.017,8.017,8.017h140.322c3.037,0,5.813-1.716,7.17-4.432l22.15-44.298  c0.557-1.114,0.847-2.34,0.847-3.585v-66.867c0-4.427-3.589-8.017-8.017-8.017H50.772C46.345,265.061,42.756,268.651,42.756,273.078  z M58.789,281.095h146.438v56.958l-19.087,38.173H58.789V281.095z"
   id="path12" />
<path
   style="fill:none;stroke:#000000;stroke-width:1px;stroke-linecap:butt;stroke-linejoin:miter;stroke-opacity:1"
   d="M 495.69113,238.06413 495.87438,418.982 H 409.921 299.436 l -36.265,-72.529 h -14.34 l -36.264,72.529 H 16.033 V 238.339 Z"
   id="path6908" /><path
   style="fill:none;stroke:#000000;stroke-width:1px;stroke-linecap:butt;stroke-linejoin:miter;stroke-opacity:1"
   d="m 173.37963,222.2612 338.43705,-0.18543 0.0917,204.92323 -8.017,8.017 H 294.48 l -7.17,-4.432 -31.31,-62.619 -31.31,62.618 -7.17,4.432 H 8.017 L 0,426.998 0.11495231,222.44305 Z"
   id="path6910">
</path></svg>
