<?xml version="1.0" encoding="UTF-8" standalone="no"?>
<svg
   version="1.1"
   id="Layer_1"
   x="0px"
   y="0px"
   viewBox="0 0 512 210"
   xml:space="preserve"
   sodipodi:docname="glasses.svg"
   inkscape:version="1.1.2 (b8e25be8, 2022-02-05)"
   width="512"
   height="210"
   xmlns:inkscape="http://www.inkscape.org/namespaces/inkscape"
   xmlns:sodipodi="http://sodipodi.sourceforge.net/DTD/sodipodi-0.dtd"
   xmlns="http://www.w3.org/2000/svg"
   xmlns:svg="http://www.w3.org/2000/svg"><defs
   id="defs17"><inkscape:perspective
     sodipodi:type="inkscape:persp3d"
     inkscape:vp_x="0 : -301.5 : 1"
     inkscape:vp_y="0 : 1.9539636 : 0"
     inkscape:vp_z="1 : -301.5 : 1"
     inkscape:persp3d-origin="0.5 : -301.66667 : 1"
     id="perspective6420" /></defs><sodipodi:namedview
   id="namedview15"
   pagecolor="#ffffff"
   bordercolor="#666666"
   borderopacity="1.0"
   inkscape:pageshadow="2"
   inkscape:pageopacity="0.0"
   inkscape:pagecheckerboard="0"
   showgrid="false"
   inkscape:snap-bbox="true"
   inkscape:bbox-nodes="true"
   inkscape:snap-bbox-edge-midpoints="true"
   inkscape:snap-bbox-midpoints="true"
   inkscape:bbox-paths="true"
   inkscape:object-paths="true"
   inkscape:snap-intersection-paths="true"
   inkscape:snap-smooth-nodes="true"
   inkscape:snap-midpoints="true"
   inkscape:zoom="3.1073295"
   inkscape:cx="556.58726"
   inkscape:cy="53.904808"
   inkscape:window-width="1296"
   inkscape:window-height="815"
   inkscape:window-x="0"
   inkscape:window-y="35"
   inkscape:window-maximized="0"
   inkscape:current-layer="Layer_1"
   width="511px"
   height="255px"
   viewbox-height="200" />






<g
   id="layer1"
   inkscape:label="Layer 1"><polygon
     style="fill:#a6c490"
     points="298.756,339.946 298.756,273.078 461.228,273.078 461.228,384.243 320.905,384.243 "
     id="polygon2"
     transform="translate(0,-224)" /><polygon
     style="fill:#ff8800"
     points="213.244,273.078 50.772,273.078 50.772,384.243 191.095,384.243 213.244,339.946 "
     id="polygon4"
     transform="translate(0,-224)" /><path
     d="m 320.905,168.26 h 140.322 c 4.428,0 8.017,-3.589 8.017,-8.017 V 49.078 c 0,-4.427 -3.588,-8.017 -8.017,-8.017 H 298.756 c -4.428,0 -8.017,3.589 -8.017,8.017 v 66.867 c 0,1.245 0.29,2.472 0.847,3.585 l 22.15,44.298 c 1.357,2.716 4.133,4.432 7.169,4.432 z M 306.772,57.095 H 453.21 v 95.132 H 325.859 L 306.773,114.054 V 57.095 Z"
     id="path10"
     inkscape:label="path3" /><path
     d="m 42.756,49.078 v 111.165 c 0,4.427 3.589,8.017 8.017,8.017 h 140.322 c 3.037,0 5.813,-1.716 7.17,-4.432 l 22.15,-44.298 c 0.557,-1.114 0.847,-2.34 0.847,-3.585 V 49.078 c 0,-4.427 -3.589,-8.017 -8.017,-8.017 H 50.772 c -4.427,0 -8.016,3.59 -8.016,8.017 z m 16.033,8.017 h 146.438 v 56.958 L 186.14,152.226 H 58.789 Z"
     id="path12"
     inkscape:label="path2" /><path
     style="fill:#000000;fill-opacity:1;fill-rule:nonzero;stroke-width:0.706386"
     d="m 4.7459946,206.34532 -4.03960839,-4.0822 v -97.4534 c 0,-91.18621 0.0794978,-97.64847 1.23617589,-100.48688 C 2.7075827,2.44554 3.7172011,1.18072 4.5915104,1.00433 12.342262,-0.5594 44.912115,-0.78118 257.47778,-0.71774 c 165.8233,0.0495 231.8796,0.29329 239.79774,0.88503 l 10.9286,0.81672 1.59813,2.82554 1.59813,2.82555 0.0117,97.8566 0.0116,97.85661 -4.08221,4.0396 -4.0822,4.03961 H 399.27494 295.29066 l -3.58409,-2.20531 -3.58409,-2.20532 -15.85368,-31.70122 c -8.71952,-17.43568 -16.01123,-31.70122 -16.2038,-31.70122 -0.19257,0 -7.46949,14.23599 -16.17095,31.63554 l -15.82083,31.63555 -3.65326,2.27099 -3.65326,2.27099 H 112.77615 8.785603 Z M 231.34149,159.56771 249.35705,123.54202 h 6.70795 6.70795 l 18.01557,36.02569 18.01557,36.0257 h 98.8927 98.89272 V 104.46857 13.34372 l -240.7011,0.17762 -240.701106,0.17762 -0.179262,90.94723 -0.179262,90.94722 h 99.24857 99.24857 z"
     id="path6459"
     inkscape:label="path1" /></g></svg>