<?xml version="1.0" encoding="UTF-8" standalone="no"?>
<svg
   version="1.1"
   id="Layer_1"
   x="0px"
   y="0px"
   viewBox="0 0 512 512"
   style="enable-background:new 0 0 512 512;"
   xml:space="preserve"
   sodipodi:docname="glasses-dark.svg"
   inkscape:version="1.1.2 (b8e25be8, 2022-02-05)"
   xmlns:inkscape="http://www.inkscape.org/namespaces/inkscape"
   xmlns:sodipodi="http://sodipodi.sourceforge.net/DTD/sodipodi-0.dtd"
   xmlns="http://www.w3.org/2000/svg"
   xmlns:svg="http://www.w3.org/2000/svg"><defs
   id="defs17"><inkscape:perspective
     sodipodi:type="inkscape:persp3d"
     inkscape:vp_x="0 : 256 : 1"
     inkscape:vp_y="0 : 1000 : 0"
     inkscape:vp_z="512 : 256 : 1"
     inkscape:persp3d-origin="256 : 170.66667 : 1"
     id="perspective6420" /></defs><sodipodi:namedview
   id="namedview15"
   pagecolor="#ffffff"
   bordercolor="#666666"
   borderopacity="1.0"
   inkscape:pageshadow="2"
   inkscape:pageopacity="0.0"
   inkscape:pagecheckerboard="0"
   showgrid="false"
   inkscape:snap-bbox="true"
   inkscape:bbox-nodes="true"
   inkscape:snap-bbox-edge-midpoints="true"
   inkscape:snap-bbox-midpoints="true"
   inkscape:bbox-paths="true"
   inkscape:object-paths="true"
   inkscape:snap-intersection-paths="true"
   inkscape:snap-smooth-nodes="true"
   inkscape:snap-midpoints="true"
   inkscape:zoom="0.98847924"
   inkscape:cx="208.90676"
   inkscape:cy="319.17716"
   inkscape:window-width="1296"
   inkscape:window-height="815"
   inkscape:window-x="0"
   inkscape:window-y="35"
   inkscape:window-maximized="0"
   inkscape:current-layer="layer1" />






<g
   id="layer1"
   inkscape:label="Layer 1"
   inkscape:groupmode="layer"><polygon
     style="fill:#a6c490"
     points="461.228,273.078 461.228,384.243 320.905,384.243 298.756,339.946 298.756,273.078 "
     id="polygon2" /><polygon
     style="fill:#ff8800"
     points="50.772,384.243 191.095,384.243 213.244,339.946 213.244,273.078 50.772,273.078 "
     id="polygon4" /><path
     d="m 320.905,392.26 h 140.322 c 4.428,0 8.017,-3.589 8.017,-8.017 V 273.078 c 0,-4.427 -3.588,-8.017 -8.017,-8.017 H 298.756 c -4.428,0 -8.017,3.589 -8.017,8.017 v 66.867 c 0,1.245 0.29,2.472 0.847,3.585 l 22.15,44.298 c 1.357,2.716 4.133,4.432 7.169,4.432 z M 306.772,281.095 H 453.21 v 95.132 H 325.859 l -19.086,-38.173 v -56.959 z"
     id="path10"
     style="fill:#ffffff" /><path
     d="m 42.756,273.078 v 111.165 c 0,4.427 3.589,8.017 8.017,8.017 h 140.322 c 3.037,0 5.813,-1.716 7.17,-4.432 l 22.15,-44.298 c 0.557,-1.114 0.847,-2.34 0.847,-3.585 v -66.867 c 0,-4.427 -3.589,-8.017 -8.017,-8.017 H 50.772 c -4.427,0 -8.016,3.59 -8.016,8.017 z m 16.033,8.017 h 146.438 v 56.958 L 186.14,376.226 H 58.789 Z"
     id="path12"
     style="fill:#ffffff" /><path
     style="fill:#ffffff;fill-opacity:1;fill-rule:nonzero;stroke-width:0.706386"
     d="m 4.7459946,430.34532 -4.03960839,-4.0822 v -97.4534 c 0,-91.18621 0.0794978,-97.64847 1.23617589,-100.48688 0.7650206,-1.8773 1.774639,-3.14212 2.6489483,-3.31851 7.7507516,-1.56373 40.3206046,-1.78551 252.8862696,-1.72207 165.8233,0.0495 231.8796,0.29329 239.79774,0.88503 l 10.9286,0.81672 1.59813,2.82554 1.59813,2.82555 0.0117,97.8566 0.0116,97.85661 -4.08221,4.0396 -4.0822,4.03961 H 399.27494 295.29066 l -3.58409,-2.20531 -3.58409,-2.20532 -15.85368,-31.70122 c -8.71952,-17.43568 -16.01123,-31.70122 -16.2038,-31.70122 -0.19257,0 -7.46949,14.23599 -16.17095,31.63554 l -15.82083,31.63555 -3.65326,2.27099 -3.65326,2.27099 H 112.77615 8.785603 Z M 231.34149,383.56771 249.35705,347.54202 h 6.70795 6.70795 l 18.01557,36.02569 18.01557,36.0257 h 98.8927 98.89272 v -91.12484 -91.12485 l -240.7011,0.17762 -240.701106,0.17762 -0.179262,90.94723 -0.179262,90.94722 h 99.24857 99.24857 z"
     id="path6459" /><path
     style="fill:#000000;fill-opacity:1;fill-rule:nonzero;stroke-width:1.01166"
     d="M 17.198136,328.78789 V 239.76224 H 255.94872 494.69931 v 89.02565 89.02564 h -97.38303 -97.38304 l -18.18731,-36.41958 -18.18731,-36.41958 h -7.6099 -7.60989 l -18.18731,36.41958 -18.18731,36.41958 H 114.58117 17.198136 Z M 196.02086,357.613 205.36597,338.89033 V 309.55939 280.22844 H 132.02098 58.675992 v 48.05362 48.05361 h 63.999878 63.99988 z m 257.2006,-29.33094 v -48.05362 h -73.34499 -73.34499 v 29.33095 29.33094 l 9.34511,18.72267 9.34511,18.72267 h 63.99988 63.99988 z"
     id="path7646" /><path
     style="fill:#ffffff;fill-opacity:1;fill-rule:nonzero;stroke-width:1.01166"
     d="M 4.7577608,430.16365 1.011655,426.32728 v -97.8852 c 0,-83.37592 0.2166919,-98.30425 1.4618862,-100.71219 1.4341866,-2.77341 1.6785869,-2.83946 12.8986018,-3.48595 14.978066,-0.86303 467.654267,-0.86794 481.754197,-0.005 10.55798,0.646 10.87241,0.73525 12.29724,3.49055 1.24565,2.40882 1.46221,17.33837 1.46221,100.80307 v 97.97546 l -3.83636,3.74611 -3.83636,3.74611 -104.15781,-0.004 c -101.88852,-0.004 -104.22912,-0.0472 -107.43051,-1.9992 -2.74878,-1.67599 -5.84651,-7.14106 -19.35056,-34.1386 l -16.07787,-32.14318 -15.95512,31.9294 c -13.33494,26.68591 -16.50951,32.29282 -19.33105,34.14238 l -3.37594,2.21325 H 113.01904 8.5038665 Z m 226.9350492,-46.79398 18.23905,-36.46716 6.29631,0.30049 6.29631,0.3005 18.20979,36.16582 18.20979,36.16582 98.88928,8.5e-4 98.88928,8.5e-4 V 328.78789 237.73893 H 255.94872 15.174826 v 91.04896 91.04895 h 99.139464 99.13945 z"
     id="path7751" /></g></svg>
