<?xml version="1.0" encoding="utf-8"?>
<!DOCTYPE svg PUBLIC "-//W3C//DTD SVG 1.1//EN" "http://www.w3.org/Graphics/SVG/1.1/DTD/svg11.dtd">
<svg version="1.1" id="Layer_1" xmlns="http://www.w3.org/2000/svg" xmlns:xlink="http://www.w3.org/1999/xlink" x="0px" y="0px"
	 viewBox="0 0 1686 971.2534" enable-background="new 0 0 1686 971.2534" xml:space="preserve">
<g>
	<path d="M1090.062,688.2773l-2.469-1.4487c-0.8251-0.4777-1.5825-1.056-2.3821-1.5673c-1.5807-1.0507-3.1744-2.0713-4.7833-3.0642
		c-1.5291-1.1056-3.0574-2.2024-4.6095-3.2606c-0.7698-0.5375-1.5662-1.0388-2.3254-1.5869l-2.2233-1.7095
		c-1.4779-1.1405-3.0239-2.1938-4.4939-3.3336c-1.4287-1.1882-2.8741-2.3508-4.338-3.49c-1.5059-1.094-2.8531-2.3553-4.2573-3.5513
		l-2.1162-1.7823c-0.7041-0.5947-1.4485-1.1493-2.0944-1.7996c-10.8992-9.8329-21.1354-20.2122-30.056-31.3038
		c-8.9965-11.026-17.1757-22.452-24.3092-34.0592c-7.1318-11.6033-13.4022-23.3101-19.0238-34.788
		c-1.314-2.8746-2.7629-5.7249-4.1099-8.5584c-1.2407-2.8364-2.532-5.6492-3.866-8.4373c-1.2521-2.7871-2.3783-5.5454-3.6406-8.2758
		c-1.3129-2.7343-2.3484-5.421-3.5128-8.0776c-0.5963-1.3422-1.1825-2.6614-1.7584-3.9575
		c-0.2998-0.6583-0.597-1.3107-0.8915-1.9571c-0.2689-0.6499-0.5354-1.2938-0.7994-1.9316
		c-1.0762-2.5654-2.1921-5.0901-3.3431-7.5679c-0.5859-1.2403-1.1653-2.4668-1.666-3.6672
		c-0.5265-1.2043-1.0626-2.3959-1.6083-3.5737c-1.0913-2.3558-2.2201-4.657-3.3835-6.8953
		c-2.1748-4.4464-4.3855-8.6188-6.8196-12.4816c-0.6002-0.9638-1.2278-1.9117-1.8329-2.8301
		c-0.5839-0.913-1.1791-1.8047-1.7856-2.6739c-1.2133-1.7384-2.4718-3.3868-3.7767-4.9345
		c-5.222-6.1886-11.1732-10.7777-17.9999-13.0074c-6.8265-2.2297-14.2247-1.9705-22.2023,1.0728
		c-1.9938,0.7603-4.0231,1.6938-6.0864,2.8042c-1.0317,0.5551-2.072,1.1544-3.1205,1.7983c-1.0275,0.65-2.0299,1.3543-3.056,2.0991
		c-4.0717,2.9874-8.3164,6.6871-12.5134,11.1615c-2.0228,2.2552-4.0588,4.6985-6.1039,7.3309
		c-1.0226,1.3162-2.0474,2.6796-3.0739,4.0903c-1.0519,1.4061-2.0175,2.8753-2.9673,4.3952
		c-1.9203,3.036-3.8387,6.2631-5.7494,9.6802c-0.4728,0.8581-0.95,1.7242-1.4315,2.5985c-0.4558,0.8806-0.8806,1.777-1.3208,2.6831
		c-0.8728,1.8134-1.7415,3.6746-2.6051,5.5832c-1.7157,3.8182-3.5007,7.8193-4.9358,12.0309
		c-1.4856,4.2069-3.0342,8.6008-4.3694,13.1808c-1.2533,4.5812-2.4617,9.348-3.6173,14.2937
		c-1.0496,4.9411-1.894,10.0571-2.7538,15.3492c-3.0764,21.131-3.5851,44.9698-0.3086,70.4224
		c3.2673,25.4349,10.5253,52.3922,22.2562,79.3383c11.6288,26.9916,28.2662,53.6582,49.3213,78.3839
		c1.2781,1.5792,2.6719,3.0602,4.0386,4.574c1.3792,1.5039,2.7612,3.011,4.1462,4.5214c2.7858,3.009,5.5668,6.0535,8.5668,8.906
		c2.9568,2.8966,5.9496,5.786,8.9764,8.6654c3.0691,2.8317,6.2703,5.5457,9.4521,8.3069c1.6025,1.368,3.2079,2.7384,4.8163,4.1113
		c1.636,1.3389,3.3225,2.6218,4.9943,3.9301c3.3562,2.6003,6.7373,5.1974,10.1632,7.7568c3.5057,2.4467,7.0436,4.877,10.6106,7.288
		c1.7924,1.1913,3.5544,2.4381,5.392,3.5701c1.8433,1.1232,3.6895,2.248,5.5383,3.3746c1.8593,1.1097,3.7806,2.2567,5.7634,3.4402
		c1.9882,1.1742,4.0325,2.3934,6.2135,3.5073c4.3279,2.2905,8.9264,4.6693,13.7842,7.1205
		c4.9264,2.3013,10.1428,4.6165,15.5991,7.0089c0.6827,0.297,1.3693,0.5955,2.0596,0.8956
		c0.7004,0.2732,1.4045,0.5479,2.1124,0.8239c1.4174,0.5471,2.8496,1.1,4.2968,1.6584c2.8995,1.0958,5.8584,2.2139,8.8754,3.354
		c0.7551,0.2803,1.514,0.562,2.2765,0.845c0.7711,0.2544,1.5458,0.5098,2.3242,0.7665c1.5591,0.5042,3.1328,1.0131,4.7209,1.5267
		c3.1801,1.0035,6.4178,2.0254,9.7123,3.0652c1.6797,0.5524,3.2285,0.9171,4.8452,1.3529c1.6069,0.4198,3.2272,0.8429,4.8608,1.2697
		c3.2682,0.8348,6.5895,1.6832,9.9629,2.5449c3.3555,0.9041,6.8374,1.5806,10.3572,2.2971
		c3.5197,0.7017,7.0907,1.4136,10.7122,2.1355c1.8142,0.3389,3.624,0.7411,5.4762,1.0249c1.8527,0.2777,3.7179,0.5573,5.5955,0.8387
		c3.7529,0.5413,7.5554,1.0896,11.4063,1.6449c3.8361,0.6062,7.7736,0.9146,11.7399,1.2986
		c3.9653,0.3557,7.9781,0.7156,12.0374,1.0797c2.0231,0.2095,4.0776,0.2549,6.1354,0.3541
		c2.0581,0.0851,4.1277,0.1707,6.2086,0.2566c4.1611,0.1417,8.3564,0.3629,12.6018,0.3978
		c4.2449-0.0458,8.5337-0.0919,12.8654-0.1387c2.1611-0.0359,4.333-0.072,6.5155-0.1083c2.1809-0.0612,4.3723-0.2362,6.5717-0.3562
		c4.3916-0.2854,8.8247-0.5734,13.298-0.864c2.2343-0.1156,4.4692-0.4084,6.7146-0.6493c2.2429-0.2546,4.4957-0.5105,6.7582-0.7673
		c2.2579-0.2655,4.5256-0.5321,6.8027-0.7999c1.1367-0.1434,2.2782-0.2566,3.4159-0.4288c1.1361-0.1836,2.2747-0.3677,3.4155-0.552
		c4.5513-0.7588,9.1396-1.5239,13.7642-2.295c1.1526-0.203,2.3103-0.382,3.4629-0.609c1.1493-0.2454,2.3009-0.4911,3.4547-0.7374
		c2.3033-0.4989,4.6156-0.9998,6.9364-1.5026c4.6298-1.0459,9.313-1.9561,13.9401-3.2804
		c4.6305-1.2585,9.2938-2.5261,13.9889-3.8022l1.7562-0.4862l1.7413-0.5555c1.1605-0.3723,2.3231-0.7451,3.4875-1.1187
		c2.3236-0.7531,4.6549-1.5085,6.9937-2.2665c2.3314-0.7659,4.6703-1.5342,7.0166-2.3049c2.3241-0.8357,4.6371-1.7278,6.9615-2.5991
		c4.637-1.7791,9.3215-3.4852,13.953-5.3973c18.5242-7.686,36.8098-16.8748,54.6624-27.3647
		c17.7925-10.619,34.9885-22.7878,51.4275-36.2028c4.0387-3.4318,8.0923-6.8761,12.1599-10.3323
		c3.8969-3.6349,7.8071-7.2822,11.73-10.9414l2.9213-2.7542l2.8206-2.8756c1.8695-1.925,3.7421-3.8529,5.6174-5.7837
		c1.8632-1.9336,3.7291-3.87,5.5978-5.8092c1.7853-2.0186,3.5731-4.0399,5.3634-6.0641c1.7771-2.0277,3.5566-4.0581,5.3385-6.0912
		l2.6592-3.0552l2.5392-3.1718c3.3781-4.2362,6.7561-8.4725,10.0872-12.7458c3.16-4.4043,6.3274-8.8188,9.5015-13.2428
		c0.7794-1.1123,1.5905-2.1993,2.3408-3.3341l2.2217-3.4269c1.4725-2.2858,2.9465-4.5739,4.4219-6.8641
		c1.457-2.2988,2.9604-4.5632,4.3654-6.8955c1.3622-2.3579,2.7257-4.718,4.0902-7.0802c2.6864-4.743,5.5104-9.3917,7.9087-14.2998
		c2.465-4.8647,4.9949-9.6864,7.3466-14.5958c2.2202-4.9648,4.4432-9.9359,6.6688-14.9124
		c8.4338-20.0621,15.2676-40.7548,20.4688-61.617l3.3331-15.3185l1.635-7.6396c0.484-2.5612,0.8732-5.1473,1.309-7.7159
		l2.5028-15.3994c0.2258-1.2755,0.3844-2.5657,0.5206-3.8605l0.4399-3.8737l0.8651-7.7331
		c1.34-10.2617,1.7341-20.6269,2.3707-30.8744c0.0651-1.2829,0.166-2.5605,0.1996-3.8449l0.0453-3.8568l0.0778-7.694l0.0613-7.6669
		l0.0245-3.8228l-0.1385-3.8262c-0.21-5.0851-0.4197-10.1635-0.629-15.2339l-0.1661-3.7892
		c-0.0411-1.2615-0.2045-2.5234-0.3015-3.7831c-0.228-2.5165-0.4558-5.031-0.6835-7.5433
		c-0.2321-2.5057-0.4639-5.0092-0.6956-7.5103c-0.2504-2.4973-0.4147-4.9919-0.8125-7.4722
		c-0.7035-4.9511-1.4056-9.8925-2.1063-14.823l-0.5323-3.6832l-0.267-1.8381l-0.3456-1.8289
		c-0.4673-2.4332-0.9341-4.8638-1.4003-7.2913c-0.9575-4.8455-1.8279-9.6784-2.8688-14.4616
		c-1.1628-4.7537-2.3226-9.4949-3.4791-14.2228c-0.588-2.3557-1.147-4.7103-1.7601-7.0477
		c-0.6874-2.3203-1.3737-4.6371-2.059-6.9505c-1.3774-4.6063-2.7506-9.1984-4.1193-13.7755
		c-1.5325-4.5251-3.139-9.004-4.702-13.4636c-0.7871-2.2252-1.5729-4.4465-2.3572-6.6638c-0.374-1.1123-0.8105-2.2045-1.2605-3.291
		l-1.3241-3.2612c-1.7667-4.3277-3.527-8.6391-5.28-12.9332c-0.839-2.1537-1.8259-4.2487-2.8024-6.3392
		c-0.9711-2.0893-1.9402-4.1743-2.9072-6.2548c-0.9678-2.0741-1.9335-4.1437-2.897-6.2089
		c-0.9608-2.0632-1.903-4.1251-2.9937-6.1198c-2.106-4.007-4.2025-7.9959-6.2889-11.9658c-1.0587-1.9719-2.0504-3.965-3.1572-5.8972
		c-1.1278-1.9197-2.2529-3.8346-3.3751-5.7448c-17.7684-30.6077-38.1196-57.5827-59.4586-80.6198
		c-21.3796-23.0319-43.745-42.0807-65.3534-57.6543c-21.6563-15.5597-42.7186-27.4301-61.658-36.7408
		c-2.3778-1.1428-4.7161-2.2667-7.0142-3.3712c-1.1464-0.5502-2.2828-1.0956-3.4092-1.6362
		c-0.5625-0.2698-1.1224-0.5384-1.6799-0.8057c-0.5712-0.2421-1.1398-0.4831-1.7058-0.7229
		c-4.5199-1.8978-8.8723-3.7251-13.0503-5.4793c-2.0925-0.8542-4.0989-1.7678-6.1311-2.5164
		c-2.0353-0.7356-4.0254-1.4549-5.9694-2.1574c-3.8737-1.3965-7.5636-2.7268-11.0627-3.9883
		c-14.155-4.5871-25.2107-7.8663-32.8879-9.5978c-7.5985-1.8828-11.6256-2.8807-11.6256-2.8807s3.7549,1.7602,10.8394,5.0814
		c7.123,3.1504,17.2988,8.4942,30.0071,15.5516c3.1199,1.8686,6.4098,3.839,9.8636,5.9075c1.7197,1.03,3.4803,2.0844,5.281,3.1628
		c1.7924,1.088,3.5479,2.3451,5.3787,3.5463c3.6311,2.4317,7.4138,4.9649,11.3422,7.5957c0.4885,0.3289,0.9792,0.6594,1.4723,0.9914
		c0.4784,0.3566,0.959,0.7148,1.4418,1.0747c0.9644,0.7188,1.9373,1.444,2.9189,2.1756c1.958,1.4592,3.9504,2.944,5.9763,4.4538
		c16.0734,12.1984,33.4138,26.9729,50.3748,44.9222c16.9231,17.9614,33.6241,38.8749,48.5128,62.6623
		c14.8593,23.7951,27.9032,50.4087,37.9928,79.0117c20.4152,57.1088,27.4086,122.7554,17.2961,185.6219l-0.4194,2.9471
		l-0.5751,2.9346l-1.1392,5.8604l-1.1239,5.8488l-0.556,2.92c-0.2024,0.971-0.4709,1.9343-0.7023,2.901
		c-1.9661,7.7185-3.5979,15.4492-6.0779,23.0068l-1.7006,5.6844l-0.8433,2.8372c-0.2689,0.9474-0.5588,1.8901-0.9148,2.8188
		l-3.9823,11.1659c-0.6691,1.8534-1.2839,3.717-1.9879,5.5557l-2.2765,5.4657l-4.4888,10.8884
		c-6.2626,13.7524-13.3999,26.7786-21.3667,39.0624c-2.0577,3.0141-4.1132,6.025-6.166,9.032
		c-2.135,2.941-4.3966,5.7831-6.5455,8.6677c-2.0829,2.9286-4.5402,5.5912-6.8103,8.3483l-3.4296,4.102
		c-1.1726,1.3401-2.4312,2.6123-3.6309,3.9194l-3.613,3.8918l-1.7899,1.9432c-0.6034,0.6408-1.2649,1.2345-1.8915,1.8535
		c-2.5122,2.4531-5.0192,4.901-7.5203,7.3433c-2.6136,2.3071-5.2212,4.6088-7.8221,6.9047l-1.9283,1.7218l-2.0327,1.6118
		c-1.3458,1.0742-2.6898,2.1471-4.032,3.2184c-1.3312,1.0725-2.6604,2.1434-3.9878,3.2129
		c-1.3879,0.9966-2.7738,1.9918-4.1577,2.9855c-1.3718,0.9963-2.7415,1.9913-4.109,2.9846l-2.0417,1.4866l-2.1281,1.374
		c-2.807,1.8375-5.605,3.6691-8.3933,5.4943c-2.8695,1.6799-5.7291,3.354-8.5782,5.022
		c-11.5039,6.4298-23.1287,12.0106-34.8289,16.5526c-11.761,4.4117-23.4348,8.0337-34.962,10.7444
		c-23.1288,5.1715-45.3794,7.1782-65.8468,6.3015c-1.2767-0.0433-2.548-0.0867-3.8137-0.1298
		c-1.2639-0.0483-2.5187-0.0349-3.7709-0.189c-2.4941-0.2144-4.9658-0.4269-7.4144-0.6373c-1.2205-0.111-2.4343-0.1572-3.6393-0.308
		c-1.203-0.1672-2.4001-0.3336-3.5913-0.4991c-2.3733-0.3059-4.7231-0.6089-7.049-0.9087c-2.317-0.3475-4.5946-0.8452-6.8484-1.2281
		c-1.1252-0.1985-2.2444-0.396-3.3574-0.5923c-1.1108-0.2026-2.2205-0.3427-3.307-0.6388
		c-2.1763-0.5057-4.3278-1.0059-6.4537-1.4999c-2.1208-0.4915-4.2263-0.8746-6.2631-1.5276
		c-2.0437-0.5718-4.0616-1.1365-6.0533-1.6937c-0.9948-0.2677-1.9829-0.5337-2.9644-0.798
		c-0.9808-0.2632-1.9337-0.6399-2.8911-0.9453c-1.9086-0.6281-3.7906-1.2474-5.6455-1.8578
		c-1.854-0.5984-3.6908-1.1306-5.4497-1.8738c-1.7711-0.6737-3.5151-1.3372-5.2311-1.9899
		c-0.8586-0.3171-1.7101-0.6317-2.5547-0.9437c-0.829-0.3134-1.7361-0.5973-2.4092-0.9402
		c-1.4453-0.6572-2.8673-1.2865-4.2666-1.8893c-0.7004-0.2976-1.3945-0.5924-2.0822-0.8845l-1.0261-0.4326l-0.9824-0.4993
		c-1.3042-0.6586-2.5863-1.2893-3.8464-1.8937c-0.631-0.2987-1.2556-0.5942-1.8738-0.8868l-0.9246-0.4288l-0.88-0.4912
		c-2.3306-1.306-4.5902-2.4736-6.7368-3.59c-2.0671-1.2606-4.0503-2.4098-5.9481-3.4564c-0.9672-0.4926-1.8387-1.084-2.7003-1.6289
		C1091.7231,689.2847,1090.882,688.7679,1090.062,688.2773z"/>
</g>
<g>
	<path d="M704.1567,866.0066c1.8489-1.1266,3.6951-2.2515,5.5383-3.3746c1.8375-1.132,3.5996-2.3788,5.392-3.5701
		c3.567-2.411,7.1049-4.8413,10.6106-7.288c3.4259-2.5594,6.807-5.1565,10.1632-7.7568c1.6718-1.3082,3.3583-2.5912,4.9943-3.9301
		c1.6084-1.3729,3.2137-2.7433,4.8163-4.1113c3.1819-2.7612,6.3831-5.4752,9.4521-8.3069c3.0269-2.8794,6.0197-5.7688,8.9764-8.6654
		c3-2.8525,5.781-5.897,8.5668-8.906c1.385-1.5104,2.7671-3.0175,4.1462-4.5214c1.3667-1.5138,2.7605-2.9948,4.0386-4.574
		c21.0551-24.7257,37.6925-51.3923,49.3213-78.3839c11.731-26.946,18.9889-53.9033,22.2562-79.3383
		c3.2765-25.4526,2.7678-49.2914-0.3086-70.4224c-0.8597-5.2922-1.7042-10.4081-2.7538-15.3492
		c-1.1556-4.9457-2.364-9.7125-3.6173-14.2937c-1.3352-4.58-2.8838-8.9739-4.3694-13.1808
		c-1.4351-4.2116-3.2201-8.2128-4.9358-12.0309c-0.8636-1.9086-1.7323-3.7698-2.6051-5.5832
		c-0.4402-0.9062-0.865-1.8025-1.3208-2.6831c-0.4816-0.8743-0.9587-1.7404-1.4315-2.5985
		c-1.9106-3.4172-3.8291-6.6442-5.7494-9.6802c-0.9498-1.5199-1.9154-2.9891-2.9673-4.3952
		c-1.0265-1.4106-2.0513-2.7741-3.0739-4.0903c-2.045-2.6324-4.0811-5.0757-6.1039-7.3309
		c-4.197-4.4744-8.4418-8.1741-12.5134-11.1615c-1.0261-0.7448-2.0286-1.4491-3.056-2.0991
		c-1.0485-0.6439-2.0887-1.2432-3.1205-1.7983c-2.0634-1.1104-4.0927-2.0439-6.0864-2.8042
		c-7.9775-3.0433-15.3757-3.3026-22.2023-1.0728c-6.8267,2.2297-12.7778,6.8188-17.9999,13.0074
		c-1.3049,1.5477-2.5635,3.1961-3.7767,4.9345c-0.6066,0.8692-1.2018,1.7609-1.7856,2.6739
		c-0.6051,0.9183-1.2327,1.8663-1.8329,2.8301c-2.4341,3.8628-4.6448,8.0353-6.8196,12.4816
		c-1.1635,2.2382-2.2922,4.5394-3.3835,6.8953c-0.5457,1.1779-1.0818,2.3694-1.6083,3.5737
		c-0.5007,1.2004-1.0801,2.4269-1.666,3.6672c-1.151,2.4777-2.267,5.0025-3.3431,7.5679c-0.264,0.6378-0.5305,1.2817-0.7994,1.9316
		c-0.2944,0.6464-0.5917,1.2988-0.8915,1.9571c-0.5759,1.2961-1.1621,2.6154-1.7584,3.9575c-1.1644,2.6566-2.2,5.3433-3.5128,8.0776
		c-1.2623,2.7304-2.3885,5.4887-3.6406,8.2758c-1.334,2.7881-2.6252,5.6009-3.866,8.4373
		c-1.3469,2.8335-2.7959,5.6838-4.1099,8.5584c-5.6216,11.4778-11.892,23.1846-19.0238,34.788
		c-7.1335,11.6072-15.3127,23.0332-24.3092,34.0592c-8.9207,11.0917-19.1569,21.4709-30.056,31.3038
		c-0.6459,0.6503-1.3903,1.205-2.0944,1.7996l-2.1162,1.7823c-1.4042,1.1959-2.7515,2.4573-4.2573,3.5513
		c-1.4639,1.1392-2.9093,2.3018-4.338,3.49c-1.47,1.1398-3.016,2.1931-4.4939,3.3336l-2.2233,1.7095
		c-0.7593,0.5481-1.5557,1.0494-2.3254,1.5869c-1.5521,1.0582-3.0804,2.155-4.6095,3.2606
		c-1.6089,0.9929-3.2026,2.0135-4.7833,3.0642c-0.7996,0.5112-1.557,1.0896-2.3821,1.5673l-2.469,1.4487
		c-0.8199,0.4906-1.6611,1.0073-2.5234,1.5514c-0.8616,0.5449-1.7332,1.1364-2.7003,1.6289
		c-1.8978,1.0466-3.881,2.1958-5.9481,3.4564c-2.1467,1.1163-4.4063,2.2839-6.7369,3.59l-0.88,0.4912l-0.9246,0.4288
		c-0.6181,0.2926-1.2427,0.5881-1.8738,0.8868c-1.2601,0.6044-2.5421,1.2351-3.8464,1.8937l-0.9824,0.4993l-1.0261,0.4326
		c-0.6876,0.2921-1.3817,0.5869-2.0821,0.8845c-1.3994,0.6028-2.8214,1.2321-4.2666,1.8893
		c-0.6731,0.3429-1.5803,0.6268-2.4093,0.9402c-0.8445,0.312-1.696,0.6266-2.5546,0.9437c-1.7161,0.6527-3.46,1.3162-5.2312,1.9899
		c-1.7588,0.7432-3.5956,1.2754-5.4496,1.8738c-1.8549,0.6104-3.7369,1.2297-5.6455,1.8578
		c-0.9575,0.3054-1.9102,0.6821-2.8911,0.9453c-0.9815,0.2643-1.9696,0.5303-2.9644,0.798
		c-1.9917,0.5573-4.0097,1.1219-6.0533,1.6937c-2.0367,0.653-4.1422,1.0361-6.2631,1.5276c-2.126,0.494-4.2775,0.9941-6.4537,1.4999
		c-1.0865,0.2961-2.1961,0.4362-3.3071,0.6388c-1.1129,0.1963-2.2321,0.3938-3.3574,0.5923
		c-2.2538,0.3829-4.5314,0.8806-6.8484,1.2281c-2.3257,0.2998-4.6755,0.6028-7.0488,0.9087
		c-1.1913,0.1655-2.3884,0.3319-3.5913,0.4991c-1.205,0.1508-2.4189,0.197-3.6393,0.308c-2.4486,0.2104-4.9203,0.423-7.4144,0.6373
		c-1.2523,0.1541-2.507,0.1406-3.7709,0.189c-1.2657,0.0431-2.537,0.0864-3.8137,0.1298
		c-20.4673,0.8767-42.7181-1.13-65.8468-6.3015c-11.5272-2.7107-23.201-6.3326-34.962-10.7444
		c-11.7002-4.542-23.325-10.1228-34.8288-16.5526c-2.8491-1.668-5.7088-3.342-8.5784-5.022
		c-2.7883-1.8252-5.5862-3.6567-8.3932-5.4943l-2.1281-1.374l-2.0417-1.4866c-1.3676-0.9933-2.7373-1.9883-4.1091-2.9846
		c-1.3839-0.9937-2.7698-1.9889-4.1578-2.9855c-1.3273-1.0695-2.6566-2.1404-3.9877-3.2129
		c-1.3422-1.0713-2.6862-2.1442-4.0321-3.2184l-2.0326-1.6118l-1.9285-1.7218c-2.6009-2.2959-5.2084-4.5976-7.8221-6.9047
		c-2.5011-2.4423-5.0081-4.8901-7.5203-7.3433c-0.6266-0.619-1.288-1.2127-1.8914-1.8535l-1.7899-1.9432l-3.6132-3.8918
		c-1.1997-1.3071-2.4583-2.5793-3.6308-3.9194l-3.4295-4.102c-2.2703-2.7571-4.7275-5.4197-6.8104-8.3483
		c-2.149-2.8846-4.4106-5.7267-6.5455-8.6677c-2.0529-3.007-4.1083-6.0179-6.166-9.032
		c-7.9669-12.2839-15.1042-25.3101-21.3668-39.0624l-4.4887-10.8884l-2.2766-5.4657c-0.704-1.8387-1.3188-3.7023-1.9879-5.5557
		l-3.9823-11.1659c-0.3559-0.9287-0.6458-1.8713-0.9147-2.8188l-0.8433-2.8372l-1.7006-5.6844
		c-2.48-7.5576-4.1119-15.2883-6.078-23.0068c-0.2312-0.9667-0.4998-1.93-0.7022-2.901l-0.5561-2.92l-1.1239-5.8488l-1.1391-5.8604
		l-0.5751-2.9346l-0.4194-2.9471c-10.1124-62.8665-3.119-128.5131,17.2961-185.6219c10.0897-28.603,23.1336-55.2166,37.9929-79.0117
		c14.8887-23.7874,31.5896-44.7009,48.5127-62.6623c16.961-17.9493,34.3015-32.7238,50.3748-44.9222
		c2.0259-1.5098,4.0183-2.9945,5.9764-4.4538c0.9816-0.7316,1.9545-1.4569,2.9189-2.1756c0.4827-0.3599,0.9633-0.7181,1.4418-1.0747
		c0.493-0.332,0.9838-0.6624,1.4723-0.9914c3.9284-2.6308,7.7111-5.164,11.3422-7.5957c1.8308-1.2012,3.5862-2.4583,5.3786-3.5463
		c1.8007-1.0784,3.5613-2.1328,5.2811-3.1628c3.4538-2.0686,6.7437-4.039,9.8636-5.9075
		c12.7082-7.0575,22.8841-12.4012,30.007-15.5516c7.0846-3.3212,10.8394-5.0814,10.8394-5.0814s-4.0272,0.9979-11.6255,2.8807
		c-7.6772,1.7315-18.733,5.0107-32.8881,9.5978c-3.4991,1.2615-7.189,2.5918-11.0627,3.9883
		c-1.944,0.7026-3.934,1.4218-5.9694,2.1574c-2.0322,0.7486-4.0385,1.6622-6.131,2.5164c-4.178,1.7542-8.5303,3.5815-13.0504,5.4793
		c-0.566,0.2398-1.1345,0.4808-1.7057,0.7229c-0.5574,0.2674-1.1174,0.5359-1.68,0.8057c-1.1263,0.5406-2.2627,1.086-3.4092,1.6362
		c-2.298,1.1045-4.6364,2.2284-7.014,3.3712c-18.9394,9.3106-40.0018,21.1811-61.658,36.7408
		c-21.6084,15.5736-43.9738,34.6224-65.3534,57.6543c-21.339,23.0371-41.6901,50.012-59.4586,80.6198
		c-1.1223,1.9102-2.2474,3.8251-3.3752,5.7448c-1.1068,1.9322-2.0984,3.9253-3.1572,5.8972
		c-2.0865,3.9699-4.1829,7.9588-6.2889,11.9658c-1.0906,1.9948-2.0329,4.0566-2.9936,6.1198
		c-0.9636,2.0651-1.9293,4.1348-2.897,6.2089c-0.967,2.0805-1.9362,4.1655-2.9073,6.2548
		c-0.9764,2.0906-1.9633,4.1855-2.8023,6.3392c-1.7532,4.2941-3.5133,8.6055-5.2802,12.9332l-1.324,3.2612
		c-0.4499,1.0865-0.8865,2.1787-1.2604,3.291c-0.7843,2.2173-1.5701,4.4386-2.3572,6.6638
		c-1.5629,4.4596-3.1696,8.9385-4.702,13.4636c-1.3687,4.5771-2.7418,9.1693-4.1193,13.7755
		c-0.6852,2.3134-1.3716,4.6302-2.059,6.9505c-0.6132,2.3375-1.1721,4.692-1.7601,7.0477
		c-1.1565,4.7278-2.3162,9.4691-3.4791,14.2228c-1.041,4.7832-1.9113,9.6161-2.8688,14.4616
		c-0.4662,2.4276-0.933,4.8581-1.4003,7.2913l-0.3456,1.8289l-0.267,1.8381l-0.5324,3.6832
		c-0.7006,4.9305-1.4027,9.8719-2.1063,14.823c-0.3978,2.4803-0.5621,4.975-0.8125,7.4722
		c-0.2317,2.5012-0.4636,5.0046-0.6956,7.5103c-0.2276,2.5123-0.4554,5.0267-0.6833,7.5433
		c-0.097,1.2596-0.2605,2.5215-0.3015,3.7831l-0.1662,3.7892c-0.2094,5.0704-0.4191,10.1487-0.6291,15.2339l-0.1385,3.8262
		l0.0245,3.8228l0.0613,7.6669l0.0778,7.694l0.0453,3.8568c0.0335,1.2844,0.1345,2.562,0.1995,3.8449
		c0.6366,10.2475,1.0308,20.6127,2.3707,30.8744l0.8651,7.7331l0.44,3.8737c0.1362,1.2947,0.2949,2.585,0.5206,3.8605
		l2.5028,15.3994c0.4358,2.5686,0.8249,5.1547,1.3089,7.7159l1.635,7.6396l3.3333,15.3185
		c5.2011,20.8622,12.0349,41.5549,20.4688,61.617c2.2255,4.9764,4.4485,9.9475,6.6688,14.9124
		c2.3516,4.9094,4.8815,9.7311,7.3465,14.5958c2.3983,4.9081,5.2224,9.5568,7.9086,14.2998
		c1.3646,2.3622,2.7281,4.7223,4.0903,7.0802c1.4049,2.3323,2.9083,4.5967,4.3653,6.8955c1.4754,2.2903,2.9495,4.5784,4.422,6.8641
		l2.2217,3.4269c0.7502,1.1348,1.5613,2.2218,2.3408,3.3341c3.174,4.424,6.3414,8.8385,9.5013,13.2428
		c3.3311,4.2733,6.7092,8.5096,10.0872,12.7458l2.5392,3.1718l2.6591,3.0552c1.7819,2.0331,3.5615,4.0635,5.3385,6.0912
		c1.7903,2.0242,3.5782,4.0455,5.3635,6.0641c1.8687,1.9392,3.7346,3.8756,5.5978,5.8092c1.8753,1.9308,3.7478,3.8586,5.6174,5.7837
		l2.8205,2.8756l2.9213,2.7542c3.9229,3.6592,7.8331,7.3065,11.7299,10.9414c4.0676,3.4562,8.1212,6.9005,12.1599,10.3323
		c16.439,13.4149,33.6351,25.5837,51.4276,36.2028c17.8526,10.49,36.1382,19.6787,54.6624,27.3647
		c4.6315,1.9121,9.316,3.6183,13.9529,5.3973c2.3245,0.8713,4.6375,1.7634,6.9617,2.5991c2.3463,0.7708,4.6851,1.5391,7.0165,2.3049
		c2.3388,0.7579,4.6701,1.5134,6.9938,2.2665c1.1644,0.3735,2.3269,0.7463,3.4875,1.1187l1.7413,0.5555l1.7562,0.4862
		c4.6951,1.2761,9.3585,2.5437,13.989,3.8022c4.6271,1.3243,9.3102,2.2345,13.9401,3.2804c2.3208,0.5028,4.633,1.0037,6.9365,1.5026
		c1.1537,0.2463,2.3053,0.4921,3.4547,0.7374c1.1525,0.2271,2.3104,0.406,3.4629,0.609c4.6245,0.7711,9.213,1.5363,13.7641,2.295
		c1.1409,0.1843,2.2794,0.3684,3.4156,0.552c1.1377,0.1722,2.2791,0.2854,3.4158,0.4288c2.2772,0.2678,4.5449,0.5344,6.8028,0.7999
		c2.2625,0.2568,4.5152,0.5127,6.7581,0.7673c2.2454,0.2408,4.4805,0.5337,6.7147,0.6493c4.4733,0.2906,8.9063,0.5786,13.298,0.864
		c2.1993,0.12,4.3907,0.295,6.5717,0.3562c2.1824,0.0363,4.3543,0.0724,6.5156,0.1083c4.3316,0.0468,8.6205,0.0929,12.8653,0.1387
		c4.2454-0.0349,8.4406-0.2561,12.6019-0.3978c2.0809-0.0859,4.1505-0.1715,6.2086-0.2566
		c2.0578-0.0992,4.1124-0.1447,6.1354-0.3541c4.0591-0.3641,8.0719-0.724,12.0373-1.0797c3.9662-0.384,7.9038-0.6924,11.7398-1.2986
		c3.8509-0.5553,7.6534-1.1036,11.4063-1.6449c1.8776-0.2815,3.7427-0.561,5.5954-0.8387c1.8522-0.2838,3.662-0.686,5.4763-1.0249
		c3.6215-0.7219,7.1925-1.4338,10.7122-2.1355c3.5198-0.7166,7.0017-1.3931,10.3572-2.2971
		c3.3734-0.8617,6.6947-1.7101,9.9629-2.5449c1.6337-0.4268,3.2539-0.8499,4.8608-1.2697c1.6167-0.4358,3.1655-0.8005,4.8452-1.3529
		c3.2944-1.0398,6.5322-2.0616,9.7123-3.0652c1.5881-0.5137,3.1619-1.0226,4.7209-1.5267c0.7784-0.2567,1.5531-0.5121,2.3242-0.7665
		c0.7625-0.283,1.5214-0.5647,2.2765-0.845c3.017-1.1401,5.9758-2.2582,8.8754-3.354c1.4471-0.5585,2.8794-1.1113,4.2968-1.6584
		c0.7079-0.276,1.412-0.5507,2.1124-0.8239c0.6903-0.3002,1.3768-0.5986,2.0596-0.8956c5.4563-2.3925,10.6727-4.7076,15.5991-7.0089
		c4.8578-2.4512,9.4563-4.83,13.7842-7.1205c2.181-1.1139,4.2253-2.3331,6.2135-3.5073
		C700.3761,868.2633,702.2975,867.1163,704.1567,866.0066z"/>
</g>
</svg>
